<svg xmlns="http://www.w3.org/2000/svg" viewBox="0 0 1200 630" width="1200" height="630">
  <defs>
      <linearGradient id="surface" x1="0" y1="0" x2="0" y2="1">
          <stop offset="0" stop-color="#7BD0DC"/>
          <stop offset="0.4" stop-color="#3FAACC"/>
          <stop offset="1" stop-color="#1A4A7C"/>
    </linearGradient>
      <radialGradient id="lightShaft" cx="0.5" cy="0" r="0.6">
          <stop offset="0" stop-color="#FFFFFF" stop-opacity="0.55"/>
          <stop offset="1" stop-color="#FFFFFF" stop-opacity="0"/>
      </radialGradient>
  </defs>

    <rect width="1200" height="630" fill="url(#surface)"/>

    <ellipse cx="600" cy="0" rx="450" ry="500" fill="url(#lightShaft)"/>

    <g fill="none" stroke="#FFFFFF" stroke-opacity="0.5" stroke-width="2">
        <path d="M 0 30 q 30 -10 60 0 t 60 0 t 60 0 t 60 0 t 60 0 t 60 0 t 60 0 t 60 0 t 60 0 t 60 0 t 60 0 t 60 0 t 60 0 t 60 0 t 60 0 t 60 0 t 60 0 t 60 0 t 60 0 t 60 0"/>
    </g>

    <g fill="#FFFFFF" opacity="0.65">
        <circle cx="200" cy="200" r="3"/>
        <circle cx="200" cy="170" r="2"/>
        <circle cx="195" cy="140" r="2.5"/>
        <circle cx="200" cy="100" r="1.8"/>
        <circle cx="195" cy="60" r="1.5"/>
        <circle cx="800" cy="280" r="3.5"/>
        <circle cx="795" cy="240" r="2.8"/>
        <circle cx="800" cy="200" r="2.5"/>
        <circle cx="795" cy="160" r="2"/>
        <circle cx="800" cy="120" r="1.5"/>
        <circle cx="450" cy="350" r="3"/>
        <circle cx="448" cy="310" r="2.5"/>
        <circle cx="450" cy="270" r="2"/>
    </g>

    <g transform="translate(150,510)">
        <g fill="#FF6B8E">
            <ellipse cx="0" cy="-50" rx="40" ry="55"/>
            <ellipse cx="-30" cy="-40" rx="30" ry="40"/>
            <ellipse cx="30" cy="-45" rx="32" ry="48"/>
        </g>
        <g fill="#D8401C" opacity="0.7">
            <ellipse cx="0" cy="-30" rx="32" ry="42"/>
        </g>
        <g stroke="#FFB570" stroke-width="3" fill="none" stroke-linecap="round">
            <path d="M 0 0 L -8 -50"/>
            <path d="M 0 0 L 0 -60"/>
            <path d="M 0 0 L 12 -50"/>
            <path d="M -8 -50 L -18 -75"/>
            <path d="M 12 -50 L 22 -78"/>
    </g>
  </g>

    <g transform="translate(1020,520)">
        <g fill="#7C2D8C">
            <ellipse cx="0" cy="-30" rx="26" ry="42"/>
            <ellipse cx="-25" cy="-25" rx="22" ry="34"/>
            <ellipse cx="25" cy="-30" rx="22" ry="36"/>
    </g>
        <g fill="#FFD085">
            <ellipse cx="0" cy="-65" rx="6" ry="10"/>
            <ellipse cx="-25" cy="-55" rx="5" ry="8"/>
            <ellipse cx="25" cy="-60" rx="5" ry="9"/>
    </g>
  </g>

    <g transform="translate(600,580)">
        <g fill="#3DAACC" opacity="0.85">
            <ellipse cx="0" cy="-15" rx="60" ry="20"/>
            <ellipse cx="-50" cy="-10" rx="38" ry="14"/>
            <ellipse cx="50" cy="-12" rx="38" ry="16"/>
        </g>
    </g>

    <g fill="#FFD085">
        <g transform="translate(300,250)">
            <polygon points="0,0 16,-5 16,5"/>
        </g>
        <g transform="translate(330,265)">
            <polygon points="0,0 14,-4 14,4"/>
        </g>
        <g transform="translate(355,245)">
            <polygon points="0,0 16,-5 16,5"/>
        </g>
        <g transform="translate(385,260)">
            <polygon points="0,0 14,-4 14,4"/>
        </g>
        <g transform="translate(410,250)">
            <polygon points="0,0 16,-5 16,5"/>
        </g>
    </g>
    <g fill="#FF6B8E">
        <g transform="translate(700,180)">
            <polygon points="0,0 18,-6 18,6"/>
        </g>
        <g transform="translate(740,195)">
            <polygon points="0,0 16,-5 16,5"/>
        </g>
        <g transform="translate(770,180)">
            <polygon points="0,0 18,-6 18,6"/>
        </g>
    </g>

    <path d="M 0 600 Q 300 580 600 590 Q 900 600 1200 580 L 1200 630 L 0 630 Z" fill="#0F2A48"/>

    <text x="60" y="618" fill="#FFFFFF" font-family="-apple-system, sans-serif" font-size="14" opacity="0.85"
          letter-spacing="2">lingcoder.com
    </text>
</svg>
